# xmcd
#
# Track frame offsets:
#	150
#	7707
#	33079
#	48555
#	71426
#	87058
#	96025
#	123422
#	133241
#	161038
#	166836
#	184706
#	206125
#	211776
#	241904
#	271433
#	313971
#
# Disc length: 4609 seconds
#
# Revision: 1
# Processed by: cddbd v1.5.1PL2 Copyright (c) Steve Scherf et al.
# Submitted via: EasyCDDAExtractor 9.0.0.1
#
DISCID=e311ff11
DTITLE=Guns and Roses - NovaRock-Festival Pannonia Fields II Nickelsdorf Austria
DTITLE=17-06-06 Disc 1
DYEAR=2006
DGENRE=Hard Rock
TTITLE0=Intro
TTITLE1=Welcome To The Jungle
TTITLE2=It's So Easy
TTITLE3=Mr Brownstone
TTITLE4=Live And Let Die
TTITLE5=Happy Birthday Für den Stage Manager
TTITLE6=Madagascar
TTITLE7=Robin Solo
TTITLE8=Sweet Child O'Mine
TTITLE9=Band Jazz
TTITLE10=Dizzy Solo
TTITLE11=The Blues
TTITLE12=Jazz Jam
TTITLE13=Richard and Robin Solo (Beautiful)
TTITLE14=You Could Be Mine
TTITLE15=Knockin On Heavens Door
TTITLE16=Better
EXTD=
EXTT0=
EXTT1=
EXTT2=
EXTT3=
EXTT4=
EXTT5=
EXTT6=
EXTT7=
EXTT8=
EXTT9=
EXTT10=
EXTT11=
EXTT12=
EXTT13=
EXTT14=
EXTT15=
EXTT16=
PLAYORDER=
